<?xml version='1.0' encoding='iso-8859-1'?>
<!DOCTYPE svg PUBLIC '-//W3C//DTD SVG 1.1//EN' 'http://www.w3.org/Graphics/SVG/1.1/DTD/svg11.dtd'>
<svg version="1.1" xmlns="http://www.w3.org/2000/svg" viewBox="0 0 429.98 429.98" xmlns:xlink="http://www.w3.org/1999/xlink" enable-background="new 0 0 429.98 429.98">
  <g>
    <path d="m338.968,81.605c-15.947-24.632-34.238-44.226-54.365-58.238-22.274-15.505-45.694-23.367-69.613-23.367s-47.34,7.862-69.613,23.367c-20.127,14.012-38.418,33.606-54.365,58.238-30.691,47.406-49.014,109.325-49.014,165.633 0,55.802 17.537,102.65 50.715,135.478 30.804,30.479 74.229,47.264 122.277,47.264s91.473-16.785 122.276-47.264c33.178-32.828 50.715-79.675 50.715-135.478 0.001-56.308-18.322-118.227-49.013-165.633zm24.014,165.633c0,1.178-0.016,2.347-0.034,3.516h-295.916c-0.017-1.169-0.034-2.338-0.034-3.516 0-4.287 0.127-8.613 0.355-12.961h295.274c0.228,4.348 0.355,8.674 0.355,12.961zm-6.813,53.503c-0.198-0.173-0.391-0.345-0.593-0.518-11.184-9.556-22.484-14.402-33.586-14.402-18.723,0-28.587,10.327-35.79,17.868-6.536,6.843-10.019,10.132-17.701,10.132-7.688,0-11.173-3.29-17.712-10.135-7.203-7.54-17.067-17.865-35.788-17.865s-28.585,10.326-35.788,17.865c-6.539,6.845-10.024,10.135-17.712,10.135s-11.173-3.29-17.712-10.135c-7.203-7.54-17.067-17.865-35.788-17.865-11.106,0-22.409,4.845-33.594,14.401-0.203,0.173-0.395,0.345-0.594,0.518-2.191-7.975-3.861-16.314-4.997-24.986h292.352c-1.137,8.673-2.806,17.011-4.997,24.987zm-286.314-91.463c1.367-9.327 3.212-18.673 5.506-27.944 8.574,6.734 19.913,12.937 32.628,12.937 18.721,0 28.585-10.326 35.788-17.865 6.54-6.845 10.024-10.135 17.712-10.135 7.682,0 11.164,3.289 17.7,10.132 7.203,7.541 17.067,17.868 35.79,17.868 18.721,0 28.585-10.326 35.788-17.865 6.539-6.845 10.024-10.135 17.712-10.135s11.173,3.29 17.712,10.135c7.203,7.54 17.067,17.865 35.788,17.865 12.717,0 24.061-6.207 32.638-12.942 2.295,9.272 4.141,18.62 5.508,27.949h-290.27zm42.143-114.087c13.976-21.587 30.457-39.328 47.663-51.306 18-12.531 36.616-18.885 55.329-18.885s37.328,6.354 55.329,18.885c17.206,11.978 33.688,29.72 47.663,51.306 11.655,18.002 21.36,38.286 28.743,59.537-6.177,6.506-16.179,14.542-24.745,14.542-7.688,0-11.173-3.29-17.712-10.135-7.203-7.54-17.067-17.865-35.788-17.865s-28.585,10.326-35.788,17.865c-6.539,6.845-10.024,10.135-17.712,10.135-7.689,0-11.173-3.291-17.711-10.136-7.201-7.539-17.063-17.864-35.778-17.864-18.721,0-28.585,10.326-35.788,17.865-6.54,6.845-10.024,10.135-17.712,10.135-8.906,0-18.844-8.38-24.724-14.572 7.38-21.24 17.081-41.513 28.731-59.507zm207.685,269.754c-26.092,25.817-63.273,40.035-104.693,40.035s-78.601-14.218-104.693-40.035c-11.076-10.959-20.1-23.864-26.995-38.435 5.262-6.176 15.858-15.688 24.698-15.688 7.688,0 11.173,3.29 17.712,10.135 7.203,7.54 17.067,17.865 35.788,17.865s28.585-10.326 35.788-17.865c6.539-6.845 10.024-10.135 17.712-10.135s11.173,3.29 17.712,10.135c7.203,7.54 17.067,17.865 35.788,17.865 18.715,0 28.578-10.325 35.779-17.864 6.539-6.845 10.022-10.136 17.711-10.136 9.257,0 19.859,10.107 24.681,15.706-6.896,14.563-15.917,27.462-26.988,38.417z"/>
    <path d="m107.993,162.359c3.29,0 6.51-1.34 8.83-3.67 2.33-2.32 3.67-5.54 3.67-8.83 0-3.3-1.34-6.52-3.67-8.84-2.32-2.33-5.54-3.66-8.83-3.66s-6.52,1.33-8.84,3.66c-2.33,2.32-3.66,5.54-3.66,8.84 0,3.29 1.33,6.51 3.66,8.83 2.32,2.33 5.55,3.67 8.84,3.67z"/>
    <path d="m321.983,162.359c3.29,0 6.51-1.34 8.83-3.67 2.33-2.32 3.67-5.54 3.67-8.84 0-3.29-1.34-6.51-3.67-8.83-2.32-2.33-5.54-3.67-8.83-3.67s-6.51,1.34-8.84,3.67c-2.33,2.32-3.66,5.54-3.66,8.83 0,3.3 1.33,6.52 3.66,8.84 2.32,2.33 5.55,3.67 8.84,3.67z"/>
    <path d="m214.983,162.359c3.29,0 6.51-1.34 8.83-3.67 2.33-2.32 3.67-5.55 3.67-8.83 0-3.29-1.34-6.52-3.67-8.84-2.32-2.33-5.54-3.66-8.83-3.66-3.3,0-6.52,1.33-8.84,3.66-2.33,2.32-3.66,5.55-3.66,8.84 0,3.28 1.33,6.51 3.66,8.83 2.32,2.33 5.55,3.67 8.84,3.67z"/>
    <path d="m107.993,317.979c-3.29,0-6.52,1.34-8.84,3.66-2.33,2.33-3.66,5.55-3.66,8.84 0,3.3 1.33,6.52 3.66,8.84 2.32,2.33 5.55,3.66 8.84,3.66s6.51-1.33 8.83-3.66c2.33-2.32 3.67-5.55 3.67-8.84s-1.34-6.51-3.67-8.84c-2.32-2.32-5.54-3.66-8.83-3.66z"/>
    <path d="m321.983,317.979c-3.29,0-6.51,1.34-8.84,3.66-2.33,2.33-3.66,5.55-3.66,8.84s1.33,6.52 3.66,8.84c2.32,2.33 5.55,3.66 8.84,3.66s6.51-1.33 8.83-3.66c2.33-2.32 3.67-5.55 3.67-8.84s-1.34-6.51-3.67-8.84c-2.32-2.32-5.54-3.66-8.83-3.66z"/>
    <path d="m214.983,317.979c-3.3,0-6.52,1.34-8.84,3.66-2.33,2.33-3.66,5.55-3.66,8.84s1.33,6.51 3.66,8.84c2.32,2.33 5.54,3.66 8.84,3.66 3.29,0 6.51-1.33 8.83-3.66 2.33-2.33 3.67-5.55 3.67-8.84s-1.34-6.51-3.67-8.84c-2.32-2.32-5.54-3.66-8.83-3.66z"/>
  </g>
</svg>
